# xmcd CD database file
#
# Track frame offsets:
#	183
#	22908
#	53975
#	66950
#	79673
#	92230
#	110588
#	125400
#	151488
#
# Disc length: 2124 seconds
#
# Revision: 0
# Processed by: cddbd v1.5.1PL2 Copyright (c) Steve Scherf et al.
# Submitted via: CDex 1.70beta2
#
DISCID=71084a09
DTITLE=Silvan Zingg - Too good to be true
DYEAR=1995
DGENRE=Jazz
TTITLE0=Boogie must go on
TTITLE1=East Bay Blues
TTITLE2=88 Keys Boogie
TTITLE3=I´d Like to Teach The World Sing
TTITLE4=Ticino Boogie
TTITLE5=Cow Cow Blues
TTITLE6=Goin´ Fast
TTITLE7=Weatherproof Song
TTITLE8=Bye!
EXTD=YEAR: 1995
EXTT0=
EXTT1=
EXTT2=
EXTT3=
EXTT4=
EXTT5=
EXTT6=
EXTT7=
EXTT8=
PLAYORDER=
